<svg
  xmlns="http://www.w3.org/2000/svg"
  xmlns:xlink="http://www.w3.org/1999/xlink" version="1.1" x="0px" y="0px" viewBox="0 15 100 67" xml:space="preserve">
  <path fill="#aaaaaa" d="M63.83,47.794H36.045c-1.242,0-2.252-1.01-2.252-2.252V17.756c0-1.242,1.01-2.252,2.252-2.252H63.83   c1.242,0,2.253,1.01,2.253,2.252v27.786C66.083,46.784,65.072,47.794,63.83,47.794z M36.045,17.006c-0.414,0-0.75,0.336-0.75,0.75   v27.786c0,0.414,0.336,0.751,0.75,0.751H63.83c0.413,0,0.751-0.337,0.751-0.751V17.756c0-0.415-0.338-0.75-0.751-0.75H36.045z"/>
  <path fill="#aaaaaa" d="M42.177,36.28c-0.192,0-0.384-0.073-0.531-0.22c-0.293-0.293-0.293-0.769,0-1.062l7.76-7.76   c0.281-0.282,0.78-0.282,1.062,0l7.76,7.76c0.294,0.293,0.294,0.769,0,1.062c-0.293,0.293-0.769,0.293-1.062,0l-7.229-7.229   l-7.229,7.229C42.562,36.207,42.37,36.28,42.177,36.28z"/>
  <path fill="#aaaaaa" d="M63.83,81.587H36.045c-1.242,0-2.252-1.011-2.252-2.253V51.549c0-1.242,1.01-2.253,2.252-2.253H63.83   c1.242,0,2.253,1.011,2.253,2.253v27.785C66.083,80.576,65.072,81.587,63.83,81.587z M36.045,50.798   c-0.414,0-0.75,0.337-0.75,0.751v27.785c0,0.414,0.336,0.75,0.75,0.75H63.83c0.413,0,0.751-0.336,0.751-0.75V51.549   c0-0.414-0.338-0.751-0.751-0.751H36.045z"/>
  <path fill="#aaaaaa" d="M49.938,70.072c-0.199,0-0.39-0.079-0.531-0.22l-7.76-7.761c-0.293-0.293-0.293-0.769,0-1.062   c0.293-0.294,0.768-0.294,1.062,0l7.229,7.229l7.229-7.229c0.293-0.294,0.769-0.294,1.062,0c0.294,0.293,0.294,0.769,0,1.062   l-7.76,7.761C50.328,69.993,50.137,70.072,49.938,70.072z"/>
  <path fill="#aaaaaa" d="M97.622,81.587H69.837c-1.242,0-2.252-1.011-2.252-2.253V51.549c0-1.242,1.01-2.253,2.252-2.253h27.785   c1.242,0,2.253,1.011,2.253,2.253v27.785C99.875,80.576,98.864,81.587,97.622,81.587z M69.837,50.798   c-0.413,0-0.751,0.337-0.751,0.751v27.785c0,0.414,0.338,0.75,0.751,0.75h27.785c0.414,0,0.751-0.336,0.751-0.75V51.549   c0-0.414-0.337-0.751-0.751-0.751H69.837z"/>
  <path fill="#aaaaaa" d="M79.85,73.952c-0.191,0-0.384-0.073-0.53-0.22c-0.294-0.293-0.294-0.769,0-1.062l7.229-7.229l-7.229-7.229   c-0.294-0.294-0.294-0.769,0-1.062c0.293-0.294,0.769-0.294,1.062,0l7.76,7.76c0.293,0.294,0.293,0.769,0,1.062l-7.76,7.76   C80.234,73.879,80.042,73.952,79.85,73.952z"/>
  <path fill="#aaaaaa" d="M30.038,81.587H2.253C1.011,81.587,0,80.576,0,79.334V51.549c0-1.242,1.011-2.253,2.253-2.253h27.785   c1.242,0,2.253,1.011,2.253,2.253v27.785C32.291,80.576,31.28,81.587,30.038,81.587z M2.253,50.798   c-0.414,0-0.751,0.337-0.751,0.751v27.785c0,0.414,0.337,0.75,0.751,0.75h27.785c0.414,0,0.751-0.336,0.751-0.75V51.549   c0-0.414-0.337-0.751-0.751-0.751H2.253z"/>
  <path fill="#aaaaaa" d="M20.025,73.952c-0.191,0-0.384-0.073-0.531-0.22l-7.76-7.76c-0.293-0.294-0.293-0.769,0-1.062l7.76-7.76   c0.293-0.294,0.769-0.294,1.062,0c0.293,0.293,0.293,0.768,0,1.062l-7.23,7.229l7.23,7.229c0.293,0.293,0.293,0.769,0,1.062   C20.409,73.879,20.217,73.952,20.025,73.952z"/>
</svg>
